<?xml version="1.0" encoding="UTF-8" standalone="no"?>
<!-- Created with Inkscape (http://www.inkscape.org/) -->

<svg
   xmlns:dc="http://purl.org/dc/elements/1.1/"
   xmlns:cc="http://creativecommons.org/ns#"
   xmlns:rdf="http://www.w3.org/1999/02/22-rdf-syntax-ns#"
   xmlns:svg="http://www.w3.org/2000/svg"
   xmlns="http://www.w3.org/2000/svg"
   xmlns:sodipodi="http://sodipodi.sourceforge.net/DTD/sodipodi-0.dtd"
   xmlns:inkscape="http://www.inkscape.org/namespaces/inkscape"
   version="1.1"
   id="svg2"
   xml:space="preserve"
   width="533.33331"
   height="533.33331"
   viewBox="0 0 533.33331 533.33331"
   sodipodi:docname="VTX_logo_vect.svg"
   inkscape:version="0.92.4 (5da689c313, 2019-01-14)"><metadata
     id="metadata8"><rdf:RDF><cc:Work
         rdf:about=""><dc:format>image/svg+xml</dc:format><dc:type
           rdf:resource="http://purl.org/dc/dcmitype/StillImage" /><dc:title></dc:title></cc:Work></rdf:RDF></metadata><defs
     id="defs6"><clipPath
       clipPathUnits="userSpaceOnUse"
       id="clipPath34"><path
         d="M 0,400 H 400 V 0 H 0 Z"
         id="path32"
         inkscape:connector-curvature="0" /></clipPath></defs><sodipodi:namedview
     pagecolor="#ffffff"
     bordercolor="#666666"
     borderopacity="1"
     objecttolerance="10"
     gridtolerance="10"
     guidetolerance="10"
     inkscape:pageopacity="0"
     inkscape:pageshadow="2"
     inkscape:window-width="1536"
     inkscape:window-height="841"
     id="namedview4"
     showgrid="false"
     inkscape:zoom="0.44250002"
     inkscape:cx="266.66666"
     inkscape:cy="266.66666"
     inkscape:window-x="-8"
     inkscape:window-y="-8"
     inkscape:window-maximized="1"
     inkscape:current-layer="g10" /><g
     id="g10"
     inkscape:groupmode="layer"
     inkscape:label="VTX_logo_vect"
     transform="matrix(1.3333333,0,0,-1.3333333,0,533.33333)"><g
       id="g12"
       transform="translate(153.1519,108.6758)"><path
         d="M 0,0 -6.346,-12.395 -35.398,-69.408 -64.45,-12.395 -70.796,0 h 13.881 l 6.346,-12.395 15.171,-29.746 15.17,29.746 L -13.881,0 Z"
         style="fill:#000000;fill-opacity:1;fill-rule:nonzero;stroke:none"
         id="path14"
         inkscape:connector-curvature="0" /></g><g
       id="g16"
       transform="translate(234.6553,108.6758)"><path
         d="m 0,0 v -12.395 h -28.458 v -57.013 h -12.394 v 57.013 H -69.31 V 0 Z"
         style="fill:#000000;fill-opacity:1;fill-rule:nonzero;stroke:none"
         id="path18"
         inkscape:connector-curvature="0" /></g><g
       id="g20"
       transform="translate(317.6445,108.7002)"><path
         d="m 0,0 -26.87,-34.803 26.771,-34.605 h -15.667 l -18.938,24.491 -18.938,-24.491 H -69.309 L -42.636,-34.803 -69.507,0 h 15.666 L -34.803,-24.689 -15.766,0 h 15.568 z"
         style="fill:#000000;fill-opacity:1;fill-rule:nonzero;stroke:none"
         id="path22"
         inkscape:connector-curvature="0" /></g><g
       id="g24"
       transform="translate(233.6299,248.52)"><path
         d="M 0,0 -24.34,28.25 53.51,107.17 46.48,93.08 Z M -27.1,-54.26 V 12.2 L -4.87,-9.75 Z M -40.45,12.18 V -54.28 L -62.66,-9.8 Z m -78.69,91.14 -1.92,3.84 77.84,-78.92 -24.31,-28.29 z m -10.52,21.12 -0.04,0.08 0.09,-0.08 h 89.16 v -80.7 l -89.16,80.7 z m 102.56,0 h 89.19 l 0.03,0.03 -0.01,-0.03 H 62.09 L -27.1,43.74 Z m 36.54,-135.4 51.95,104.04 15.66,31.36 6.67,13.35 h -234.99 l 6.67,-13.35 10.35,-20.74 57.29,-114.73 -74.31,-86.49 78.63,77.83 38.86,-77.83 38.9,77.91 78.901,-77.91 z"
         style="fill:#000000;fill-opacity:1;fill-rule:nonzero;stroke:none"
         id="path26"
         inkscape:connector-curvature="0" /></g><g
       id="g28"><g
         id="g30"
         clip-path="url(#clipPath34)"><g
           id="g36"
           transform="translate(82.3555,18.1172)"><path
             d="M 0,0 C 19.607,1.668 39.215,2.499 58.822,3.138 78.43,3.726 98.037,3.999 117.645,4.003 137.252,4.01 156.859,3.735 176.467,3.148 196.074,2.515 215.682,1.678 235.289,0 215.682,-1.678 196.074,-2.515 176.467,-3.148 156.859,-3.735 137.252,-4.01 117.645,-4.003 98.037,-3.998 78.43,-3.725 58.822,-3.138 39.215,-2.499 19.607,-1.668 0,0"
             style="fill:#000000;fill-opacity:1;fill-rule:nonzero;stroke:none"
             id="path38"
             inkscape:connector-curvature="0" /></g><g
           id="g40"
           transform="translate(82.3555,129.8506)"><path
             d="M 0,0 C 19.607,1.589 39.215,2.38 58.822,2.988 78.43,3.548 98.037,3.809 117.645,3.813 137.252,3.818 156.859,3.558 176.467,2.999 196.074,2.395 215.682,1.598 235.289,0 215.682,-1.598 196.074,-2.395 176.467,-2.999 156.859,-3.558 137.252,-3.818 117.645,-3.813 98.037,-3.809 78.43,-3.548 58.822,-2.988 39.215,-2.38 19.607,-1.589 0,0"
             style="fill:#000000;fill-opacity:1;fill-rule:nonzero;stroke:none"
             id="path42"
             inkscape:connector-curvature="0" /></g></g></g></g></svg>